<?xml version="1.0" encoding="UTF-8"?>
<svg width="512px" height="512px" viewBox="0 0 512 512" version="1.1" xmlns="http://www.w3.org/2000/svg" xmlns:xlink="http://www.w3.org/1999/xlink">
    <title>favicon2022</title>
    <g id="favicon2022" stroke="none" stroke-width="1" fill="none" fill-rule="evenodd">
        <path d="M460,52 L460,502 L371,502 L371.004082,364.795928 C398.260967,336.254349 415,297.58198 415,255 C415,212.41802 398.260967,173.745651 371.004082,145.204072 L371,52 L460,52 Z M257,52 C369.666089,52 460,143.333911 460,256 L459.989025,254.501773 C459.996329,254.833633 460,255.166388 460,255.5 C460,255.569885 459.999839,255.639732 459.999517,255.709541 L460,256 C460,368.666089 369.666089,460 257,460 C144.333911,460 53,368.666089 53,256 C53,143.333911 144.333911,52 257,52 Z M256.5,141 C193.263396,141 142,192.263396 142,255.5 C142,318.736604 193.263396,370 256.5,370 C319.736604,370 371,318.736604 371,255.5 C371,192.263396 319.736604,141 256.5,141 Z" id="favicon" fill="#ADADAD"></path>
    </g>
</svg>