<?xml version="1.0" encoding="UTF-8"?>
<svg xmlns="http://www.w3.org/2000/svg" xmlns:xlink="http://www.w3.org/1999/xlink" width="30pt" height="30pt" viewBox="0 0 30 30" version="1.1">
<g id="surface1">
<path style=" stroke:none;fill-rule:evenodd;fill:rgb(67.843137%,67.843137%,67.843137%);fill-opacity:1;" d="M 26.953125 3.046875 L 26.953125 29.414062 L 21.738281 29.414062 L 21.738281 21.375 C 23.335938 19.703125 24.316406 17.4375 24.316406 14.941406 C 24.316406 12.445312 23.335938 10.179688 21.738281 8.507812 L 21.738281 3.046875 Z M 15.058594 3.046875 C 21.660156 3.046875 26.953125 8.398438 26.953125 15 L 26.953125 14.914062 C 26.953125 14.933594 26.953125 14.949219 26.953125 14.96875 C 26.953125 14.976562 26.953125 14.980469 26.953125 14.984375 L 26.953125 15 C 26.953125 21.601562 21.660156 26.953125 15.058594 26.953125 C 8.457031 26.953125 3.105469 21.601562 3.105469 15 C 3.105469 8.398438 8.457031 3.046875 15.058594 3.046875 Z M 15.03125 8.261719 C 11.324219 8.261719 8.320312 11.265625 8.320312 14.96875 C 8.320312 18.675781 11.324219 21.679688 15.03125 21.679688 C 18.734375 21.679688 21.738281 18.675781 21.738281 14.96875 C 21.738281 11.265625 18.734375 8.261719 15.03125 8.261719 Z M 15.03125 8.261719 "/>
</g>
</svg>
